<svg width="29" height="23" viewBox="0 0 29 23" fill="none" xmlns="http://www.w3.org/2000/svg">
<path d="M0 0.0371094H2.9V3.18406H0V0.0371094ZM5.8 6.33102H2.9V3.18406H5.8V6.33102ZM8.7 6.33102H5.8V9.47798H2.9V12.6249H0V22.0658H29V12.6249H26.1V9.47798H23.2V6.33102H26.1V3.18406H29V0.0371094H26.1V3.18406H23.2V6.33102H20.3V3.18406H8.7V6.33102ZM8.7 6.33102H20.3V9.47798H23.2V12.6249H26.1V18.9188H2.9V12.6249H5.8V9.47798H8.7V6.33102ZM11.6 12.6249H8.7V15.7719H11.6V12.6249ZM17.4 12.6249H20.3V15.7719H17.4V12.6249Z" fill="black"/>
</svg>
