<svg width="20" height="20" viewBox="0 0 20 20" fill="none" xmlns="http://www.w3.org/2000/svg">
<rect width="20" height="20" rx="5" fill="#F9F0EA"/>
<path d="M3 3H5.14286V5.14286H3V3ZM7.28571 7.28571H5.14286V5.14286H7.28571V7.28571ZM9.42857 9.42857H7.28571V7.28571H9.42857V9.42857ZM11.5714 9.42857H9.42857V11.5714H7.28571V13.7143H5.14286V15.8571H3V18H5.14286V15.8571H7.28571V13.7143H9.42857V11.5714H11.5714V13.7143H13.7143V15.8571H15.8571V18H18V15.8571H15.8571V13.7143H13.7143V11.5714H11.5714V9.42857ZM13.7143 7.28571V9.42857H11.5714V7.28571H13.7143ZM15.8571 5.14286V7.28571H13.7143V5.14286H15.8571ZM15.8571 5.14286V3H18V5.14286H15.8571Z" fill="black"/>
</svg>
