<svg width="15" height="14" viewBox="0 0 15 14" fill="none" xmlns="http://www.w3.org/2000/svg">
<path d="M5.45455 0H2.72727V1.36364H1.36364V2.72727H0V6.81818H1.36364V8.18182H2.72727V9.54545H4.09091V10.9091H5.45455V12.2727H6.81818V13.6364H8.18182V12.2727H9.54545V10.9091H10.9091V9.54545H12.2727V8.18182H13.6364V6.81818H15V2.72727H13.6364V1.36364H12.2727V0H9.54545V1.36364H8.18182V2.72727H6.81818V1.36364H5.45455V0ZM5.45455 1.36364V2.72727H6.81818V4.09091H8.18182V2.72727H9.54545V1.36364H12.2727V2.72727H13.6364V6.81818H12.2727V8.18182H10.9091V9.54545H9.54545V10.9091H8.18182V12.2727H6.81818V10.9091H5.45455V9.54545H4.09091V8.18182H2.72727V6.81818H1.36364V2.72727H2.72727V1.36364H5.45455Z" fill="black"/>
</svg>
