<svg width="14" height="17" viewBox="0 0 14 17" fill="none" xmlns="http://www.w3.org/2000/svg">
<path d="M12.25 5.66667H11.375V4.04762C11.375 1.81333 9.415 0 7 0C4.585 0 2.625 1.81333 2.625 4.04762V5.66667H1.75C0.7875 5.66667 0 6.39524 0 7.28571V15.381C0 16.2714 0.7875 17 1.75 17H12.25C13.2125 17 14 16.2714 14 15.381V7.28571C14 6.39524 13.2125 5.66667 12.25 5.66667ZM7 12.9524C6.0375 12.9524 5.25 12.2238 5.25 11.3333C5.25 10.4429 6.0375 9.71429 7 9.71429C7.9625 9.71429 8.75 10.4429 8.75 11.3333C8.75 12.2238 7.9625 12.9524 7 12.9524ZM9.7125 5.66667H4.2875V4.04762C4.2875 2.66333 5.50375 1.5381 7 1.5381C8.49625 1.5381 9.7125 2.66333 9.7125 4.04762V5.66667Z" fill="black"/>
</svg>
