<svg width="29" height="27" viewBox="0 0 29 27" fill="none" xmlns="http://www.w3.org/2000/svg">
<path d="M23.2 0H20.3V2.62536H17.4V5.25073H14.5V7.87609H11.6V10.5015H8.7V13.1268H5.8V15.7522H2.9V18.3776H0V26.2536H8.7V23.6283H11.6V21.0029H14.5V18.3776H17.4V15.7522H20.3V13.1268H23.2V10.5015H26.1V7.87609H29V5.25073H26.1V2.62536H23.2V0ZM23.2 10.5015H20.3V13.1268H17.4V15.7522H14.5V18.3776H11.6V21.0029H8.7V18.3776H5.8V15.7522H8.7V13.1268H11.6V10.5015H14.5V7.87609H17.4V5.25073H20.3V7.87609H23.2V10.5015ZM5.8 18.3776H2.9V23.6283H8.7V21.0029H5.8V18.3776Z" fill="#464065"/>
</svg>
