<svg width="12" height="14" viewBox="0 0 14 16" fill="none" xmlns="http://www.w3.org/2000/svg">
<path d="M3.11111 0H10.8889V1.55556H3.11111V0ZM1.55556 3.11111V1.55556H3.11111V3.11111H1.55556ZM1.55556 9.33333H0V3.11111H1.55556V9.33333ZM3.11111 10.8889H1.55556V9.33333H3.11111V10.8889ZM4.66667 12.4444H3.11111V10.8889H4.66667V12.4444ZM6.22222 14H4.66667V12.4444H6.22222V14ZM7.77778 14V15.5556H6.22222V14H7.77778ZM9.33333 12.4444V14H7.77778V12.4444H9.33333ZM10.8889 10.8889V12.4444H9.33333V10.8889H10.8889ZM12.4444 9.33333V10.8889H10.8889V9.33333H12.4444ZM12.4444 3.11111H14V9.33333H12.4444V3.11111ZM12.4444 3.11111V1.55556H10.8889V3.11111H12.4444ZM8.55556 4.66667H5.44444V7.77778H8.55556V4.66667Z" fill="black"/>
</svg>
