<svg width="27" height="27" viewBox="0 0 27 27" fill="none" xmlns="http://www.w3.org/2000/svg">
<path d="M5.25211 0H15.7563V2.62605H5.25211V0ZM2.62605 5.25211V2.62605H5.25211V5.25211H2.62605ZM2.62605 15.7563H0V5.25211H2.62605V15.7563ZM5.25211 18.3824H2.62605V15.7563H5.25211V18.3824ZM15.7563 18.3824V21.0084H5.25211V18.3824H15.7563ZM18.3824 15.7563H15.7563V18.3824H18.3824V21.0084H21.0084V23.6345H23.6345V26.2605H26.2605V23.6345H23.6345V21.0084H21.0084V18.3824H18.3824V15.7563ZM18.3824 5.25211H21.0084V15.7563H18.3824V5.25211ZM18.3824 5.25211V2.62605H15.7563V5.25211H18.3824Z" fill="black"/>
</svg>
