<svg width="390" height="52" viewBox="0 0 390 52" fill="none" xmlns="http://www.w3.org/2000/svg">
<path d="M0.5 5C0.5 2.51472 2.51472 0.5 5 0.5H385C387.485 0.5 389.5 2.51472 389.5 5V51.5H0.5V5Z" fill="#B9D7FF" stroke="black"/>
<rect x="333.345" y="20.2949" width="15.8103" height="15.9231" stroke="black"/>
<line x1="308.189" y1="36.2178" x2="323.879" y2="36.2178" stroke="black"/>
<path d="M358.62 19.7949H361.022V22.2125H358.62V19.7949ZM363.423 24.6301H361.022V22.2125H363.423V24.6301ZM365.825 27.0477H363.423V24.6301H365.825V27.0477ZM368.226 27.0477H365.825V29.4653H363.423V31.8828H361.022V34.3004H358.62V36.718H361.022V34.3004H363.423V31.8828H365.825V29.4653H368.226V31.8828H370.628V34.3004H373.029V36.718H375.43V34.3004H373.029V31.8828H370.628V29.4653H368.226V27.0477ZM370.628 24.6301V27.0477H368.226V24.6301H370.628ZM373.029 22.2125V24.6301H370.628V22.2125H373.029ZM373.029 22.2125V19.7949H375.43V22.2125H373.029Z" fill="black"/>
</svg>
