<svg width="19" height="18" viewBox="0 0 19 18" fill="none" xmlns="http://www.w3.org/2000/svg">
<path d="M8.27193 0.5625H3.75997V2.20749H2.25598V7.14245H3.75997V8.78743H8.27193V7.14245H3.75997V2.20749H8.27193V0.5625ZM8.27193 2.20749H9.77592V7.14245H8.27193V2.20749ZM0 12.0774H1.50399V15.3674H10.5279V17.0124H0V12.0774ZM1.50399 12.0774H10.5279V10.4324H1.50399V12.0774ZM12.0319 12.0774H10.5279V17.0124H12.0319V12.0774ZM11.2799 0.5625H14.2879V2.20749H11.2799V0.5625ZM14.2879 7.14245H11.2799V8.78743H14.2879V7.14245ZM14.2879 2.20749H15.7919V7.14245H14.2879V2.20749ZM18.0479 12.0774H16.5439V15.3674H13.5359V17.0124H18.0479V12.0774ZM13.5359 10.4324H16.5439V12.0774H13.5359V10.4324Z" fill="black"/>
</svg>
