<svg width="16" height="17" viewBox="0 0 16 17" fill="none" xmlns="http://www.w3.org/2000/svg">
<path d="M7.33333 0.100098H3.33333V1.70343H2V6.51343H3.33333V8.11676H7.33333V6.51343H3.33333V1.70343H7.33333V0.100098ZM7.33333 1.70343H8.66667V6.51343H7.33333V1.70343ZM0 11.3234H1.33333V14.5301H9.33333V16.1334H0V11.3234ZM1.33333 11.3234H9.33333V9.7201H1.33333V11.3234ZM10.6667 11.3234H9.33333V16.1334H10.6667V11.3234ZM10 0.100098H12.6667V1.70343H10V0.100098ZM12.6667 6.51343H10V8.11676H12.6667V6.51343ZM12.6667 1.70343H14V6.51343H12.6667V1.70343ZM16 11.3234H14.6667V14.5301H12V16.1334H16V11.3234ZM12 9.7201H14.6667V11.3234H12V9.7201Z" fill="white"/>
</svg>
